<svg xmlns="http://www.w3.org/2000/svg" width="24" height="24" viewBox="0 0 24 24" fill="white">
  <rect width="24" height="24" rx="12" fill="#F34242" />
  <g shape-rendering="crispEdges">
    <path opacity="0.75" d="M8 10L8 8L10 8L10 10L8 10Z" />
    <path d="M8 12L8 10L10 10L10 12L8 12Z" />
    <path d="M8 14L8 12L10 12L10 14L8 14Z" />
    <path opacity="0.75" d="M8 16L8 14L10 14L10 16L8 16Z" />
    <path opacity="0.75" d="M14 10L14 8L16 8L16 10L14 10Z" />
    <path d="M14 12L14 10L16 10L16 12L14 12Z" />
    <path d="M14 14L14 12L16 12L16 14L14 14Z" />
    <path opacity="0.75" d="M14 16L14 14L16 14L16 16L14 16Z" />
    <path d="M12 16H10V14H12V16Z" />
    <path d="M14 16H12V14H14V16Z" />
    <path d="M12 10H10V8H12V10Z" />
    <path d="M14 10H12V8H14V10Z" />
    <path d="M10 4V6H12V4H10Z" fill-opacity="0.25" />
    <path d="M12 18V16H14V18H12Z" fill-opacity="0.75" />
    <path d="M18 12L16 12L16 14L18 14L18 12Z" fill-opacity="0.75" />
    <path d="M6 12L8 12L8 14L6 14L6 12Z" fill-opacity="0.75" />
    <path d="M12 6V8H14V6H12Z" fill-opacity="0.75" />
    <path d="M12 4V6H14V4H12Z" fill-opacity="0.25" />
    <path d="M10 20V18H12V20H10Z" fill-opacity="0.25" />
    <path d="M12 20V18H14V20H12Z" fill-opacity="0.25" />
    <path d="M20 10L18 10L18 12L20 12L20 10Z" fill-opacity="0.25" />
    <path d="M20 12L18 12L18 14L20 14L20 12Z" fill-opacity="0.25" />
    <path d="M4 12L6 12L6 14L4 14L4 12Z" fill-opacity="0.25" />
    <path d="M4 10L6 10L6 12L4 12L4 10Z" fill-opacity="0.25" />
    <path d="M10 6V8H12V6H10Z" fill-opacity="0.75" />
    <path d="M10 18V16H12V18H10Z" fill-opacity="0.75" />
    <path d="M18 10L16 10L16 12L18 12L18 10Z" fill-opacity="0.75" />
    <path d="M6 10L8 10L8 12L6 12L6 10Z" fill-opacity="0.75" />
  </g>
</svg>
